<?xml version="1.0" standalone="no"?>
<!DOCTYPE svg PUBLIC "-//W3C//DTD SVG 1.1//EN" "http://www.w3.org/Graphics/SVG/1.1/DTD/svg11.dtd" >
<svg xmlns="http://www.w3.org/2000/svg">
<metadata></metadata>
<defs>
<font id="syntax_tregular" horiz-adv-x="1024" >
<font-face units-per-em="2048" ascent="1638" descent="-410" />
<missing-glyph horiz-adv-x="614" />
<glyph horiz-adv-x="2048" />
<glyph horiz-adv-x="2048" />
<glyph unicode="&#xd;" horiz-adv-x="2048" />
<glyph unicode=" "  horiz-adv-x="614" />
<glyph unicode="&#x09;" horiz-adv-x="614" />
<glyph unicode="&#xa0;" horiz-adv-x="614" />
<glyph unicode="!" horiz-adv-x="600" d="M178 0v242h244v-242h-244zM180 381l4 985h244l-4 -985h-244z" />
<glyph unicode="&#x22;" horiz-adv-x="819" d="M72 1366h284l-47 -547h-190zM463 1366h285l-48 -547h-190z" />
<glyph unicode="#" horiz-adv-x="1292" d="M143 449l17 122h231l29 205h-230l17 123h231l47 342h127l-49 -342h217l49 342h125l-47 -342h242l-16 -123h-244l-29 -205h244l-19 -122h-241l-53 -371h-125l51 371h-217l-51 -371h-127l53 371h-232zM518 571h217l29 205h-217z" />
<glyph unicode="$" horiz-adv-x="1116" d="M131 971q0 96 43 176t123 133q45 30 91 45.5t116 22.5v133h104v-131q95 -6 179.5 -39.5t179.5 -102.5l-107 -149q-71 50 -121 70t-133 32v-385q204 -69 290.5 -157.5t86.5 -229.5q0 -157 -107 -262.5t-274 -112.5v-172h-104v172q-104 7 -183 38t-176 100l109 155 q69 -48 125 -71.5t127 -32.5v387q-197 66 -283 154.5t-86 226.5zM362 981q0 -61 28 -94.5t112 -75.5v348q-72 -23 -106 -66t-34 -112zM604 201q77 22 111.5 62.5t34.5 109.5q0 64 -28.5 99t-117.5 81v-352z" />
<glyph unicode="%" horiz-adv-x="1314" d="M27 1047q0 143 89.5 232t231.5 89q136 0 221.5 -89t85.5 -232q0 -148 -88 -240t-229 -92q-137 0 -224 93t-87 239zM172 16l895 1397l96 -63l-891 -1399zM219 1044q0 -82 32.5 -127t90.5 -45q57 0 88 45t31 127t-32 127.5t-89 45.5q-56 0 -88.5 -47t-32.5 -126zM662 299 q0 143 89.5 232.5t231.5 89.5q136 0 221.5 -89.5t85.5 -232.5q0 -146 -88 -238t-229 -92q-136 0 -223.5 92.5t-87.5 237.5zM854 297q0 -80 32.5 -125t90.5 -45q57 0 88 45t31 127q0 80 -32 125t-89 45q-56 0 -88.5 -46.5t-32.5 -125.5z" />
<glyph unicode="&#x26;" horiz-adv-x="1302" d="M84 406q0 133 79 243t216 170q-135 97 -135 273q0 124 90 207t225 83q137 0 222 -77t85 -201q0 -191 -209 -299l291 -318q24 124 27 281h221q-3 -294 -92 -451l199 -215l-164 -147l-166 184q-140 -168 -408 -168q-228 0 -358 133q-123 126 -123 302zM332 420 q0 -103 74 -172.5t186 -69.5q64 0 112.5 21.5t133.5 87.5l-357 387q-89 -83 -119 -134t-30 -120zM451 1108q0 -36 14.5 -66t77.5 -122l45 47q46 47 64 77.5t18 63.5q0 44 -31 72t-80 28q-47 0 -77.5 -28t-30.5 -72z" />
<glyph unicode="'" horiz-adv-x="434" d="M72 1366h293l-48 -547h-198z" />
<glyph unicode="(" horiz-adv-x="776" d="M94 512q0 277 117 544.5t328 471.5l155 -125q-192 -193 -284.5 -413.5t-92.5 -481.5q0 -475 375 -856l-153 -127q-215 211 -330 465.5t-115 521.5z" />
<glyph unicode=")" horiz-adv-x="776" d="M88 -348q192 192 284.5 412t92.5 481q0 235 -95.5 452.5t-281.5 403.5l156 127q215 -211 329.5 -465t114.5 -522q0 -277 -117 -544.5t-327 -471.5z" />
<glyph unicode="*" horiz-adv-x="870" d="M86 1092l39 118l252 -80v263h125v-263l250 80l39 -118l-250 -82l155 -213l-100 -76l-156 215l-155 -215l-105 76l158 213z" />
<glyph unicode="+" d="M29 659v127h415v404h134v-404h417v-127h-417v-405h-134v405h-415z" />
<glyph unicode="," horiz-adv-x="598" d="M184 -266l2 510h289l-172 -510h-119z" />
<glyph unicode="-" horiz-adv-x="464" d="M2 399v219h465v-219h-465z" />
<glyph unicode="." horiz-adv-x="598" d="M166 0v260h258v-260h-258z" />
<glyph unicode="/" horiz-adv-x="911" d="M35 -307l645 1726l149 -61l-643 -1727z" />
<glyph unicode="0" horiz-adv-x="1116" d="M86 664q0 359 135 555q115 167 357 167q220 0 340 -175.5t120 -497.5q0 -329 -120 -535q-116 -201 -365 -201q-228 0 -347.5 176t-119.5 511zM334 666q0 -486 223 -486q115 0 174.5 133.5t59.5 393.5q0 243 -55 359t-171 116q-231 0 -231 -516z" />
<glyph unicode="1" horiz-adv-x="1116" d="M100 971l469 395h228l-6 -1366h-246l4 928q0 80 10 172l-317 -289z" />
<glyph unicode="2" horiz-adv-x="1116" d="M47 1196q110 104 209.5 147t230.5 43q212 0 343 -123.5t131 -324.5q0 -126 -54.5 -235t-185.5 -244q-131 -136 -307 -266q91 14 198 14h353v-207h-854l-60 156q231 192 307.5 259t141.5 132q114 114 159.5 197.5t45.5 177.5q0 107 -68 178t-172 71q-71 0 -138.5 -29 t-144.5 -95z" />
<glyph unicode="3" horiz-adv-x="1116" d="M68 121l112 160q69 -47 132.5 -67.5t140.5 -20.5q118 0 189 54.5t71 145.5q0 56 -30.5 102.5t-82.5 71.5q-38 19 -79.5 25t-133.5 6h-125v197h123q141 0 209 24q53 20 85 66.5t32 103.5q0 83 -59.5 137t-151.5 54q-154 0 -299 -105l-115 162q111 77 209.5 110t220.5 33 q199 0 318.5 -99t119.5 -265q0 -75 -30 -142t-82 -110q-42 -34 -119 -57q58 -13 92.5 -31t65.5 -51q40 -43 62 -104.5t22 -127.5q0 -186 -134.5 -296.5t-357.5 -110.5q-127 0 -218 30.5t-187 104.5z" />
<glyph unicode="4" horiz-adv-x="1116" d="M37 487l606 859h258l-4 -838h133v-203h-135v-305h-236v305h-555zM289 508h375v358q0 80 12 236q-75 -149 -146 -250z" />
<glyph unicode="5" horiz-adv-x="1116" d="M84 47l72 180q126 -49 241 -49q157 0 260 85.5t103 215.5q0 103 -68 169.5t-172 66.5q-78 0 -130.5 -34t-98.5 -114l-195 37l152 742h725v-201h-543l-68 -295q49 37 100 52.5t120 15.5q190 0 311 -118t121 -304q0 -107 -49 -210t-134 -175q-73 -63 -182 -97t-237 -34 q-173 0 -328 67z" />
<glyph unicode="6" horiz-adv-x="1116" d="M84 580q0 174 58.5 321t162.5 250t252.5 161t323.5 58q74 0 153 -12l-22 -187q-88 5 -103 5q-247 0 -397.5 -133t-187.5 -384q65 85 141 124.5t176 39.5q172 0 287.5 -115.5t115.5 -287.5q0 -191 -127.5 -315.5t-322.5 -124.5q-235 0 -372.5 161.5t-137.5 438.5zM334 438 q21 -68 33.5 -97.5t31.5 -59.5q30 -46 80.5 -73.5t108.5 -27.5q91 0 152 65.5t61 160.5q0 90 -59.5 150t-149.5 60q-38 0 -71.5 -10t-57.5 -24t-49 -40t-41 -47.5t-39 -56.5z" />
<glyph unicode="7" horiz-adv-x="1116" d="M104 1128v218h887l64 -156l-652 -1217l-215 93l443 827q66 125 153 254q-44 -12 -90.5 -15.5t-156.5 -3.5h-433z" />
<glyph unicode="8" horiz-adv-x="1116" d="M94 365q0 249 275 335q-244 91 -244 316q0 161 122.5 262.5t317.5 101.5t317 -96.5t122 -251.5q0 -112 -64.5 -194.5t-187.5 -126.5q132 -37 202 -123t70 -213q0 -174 -130.5 -281.5t-342.5 -107.5q-202 0 -329.5 106t-127.5 273zM340 373q0 -80 60 -130t155 -50 q100 0 161.5 50t61.5 132q0 44 -22 83.5t-62 65.5q-40 29 -137 76q-93 -44 -137 -78q-80 -58 -80 -149zM367 1018q0 -34 12 -62.5t27.5 -47t47 -38.5t52.5 -30t63 -29q85 45 111 63q80 58 80 146q0 72 -54 116t-143 44t-142.5 -44t-53.5 -118z" />
<glyph unicode="9" horiz-adv-x="1116" d="M72 946q0 191 127.5 315.5t322.5 124.5q235 0 372.5 -161.5t137.5 -438.5q0 -232 -100 -412t-281 -279t-415 -99q-74 0 -156 12l24 187q88 -5 103 -5q247 0 398 133t188 384q-64 -85 -141 -124.5t-177 -39.5q-172 0 -287.5 115.5t-115.5 287.5zM315 961q0 -91 60 -151 t149 -60q47 0 85.5 13t69.5 40t52.5 54.5t48.5 70.5q-19 65 -31 95.5t-32 61.5q-30 46 -80.5 73.5t-108.5 27.5q-91 0 -152 -65t-61 -160z" />
<glyph unicode=":" horiz-adv-x="598" d="M166 0v260h258v-260h-258zM170 709v260h258v-260h-258z" />
<glyph unicode=";" horiz-adv-x="598" d="M184 -266l2 510h289l-172 -510h-119zM197 711v260h264v-260h-264z" />
<glyph unicode="&#x3c;" d="M68 578v223l886 452v-264l-606 -301l606 -301v-262z" />
<glyph unicode="=" d="M29 508v125h966v-125h-966zM29 811v125h966v-125h-966z" />
<glyph unicode="&#x3e;" d="M70 125v264l606 301l-606 301v262l886 -452v-223z" />
<glyph unicode="?" horiz-adv-x="944" d="M47 1243q101 78 188.5 110.5t196.5 32.5q197 0 323 -106t126 -272q0 -179 -181 -314l-55 -41q-84 -62 -110.5 -116t-24.5 -152h-225v51q0 123 36.5 191.5t153.5 163.5l55 45q59 49 83 89t24 87q0 80 -59.5 131t-153.5 51q-136 0 -260 -104zM276 0v242h244v-242h-244z" />
<glyph unicode="@" horiz-adv-x="1392" d="M45 664q0 94 24.5 183.5t68 164.5t107 138.5t138.5 107t164.5 68t183.5 24.5q168 0 309.5 -75t223.5 -205.5t82 -285.5q0 -233 -181 -378q-60 -47 -127 -74t-125 -27q-53 0 -90.5 25.5t-50.5 72.5q-61 -54 -110 -76t-105 -22q-103 0 -168 72t-65 186q0 113 56 221 t147 175t186 67q132 0 192 -115l29 82h135l-162 -481q-18 -55 -18 -80t16.5 -40t44.5 -15q43 0 94 27.5t95 74.5q116 125 116 299q0 204 -152.5 347t-371.5 143q-163 0 -299 -79.5t-213.5 -217.5t-77.5 -305q0 -123 46 -233.5t124.5 -190t187.5 -126t230 -46.5 q151 0 284.5 74.5t209.5 201.5h100q-75 -161 -241 -261.5t-357 -100.5q-139 0 -265 53.5t-217 144.5t-144.5 217t-53.5 265zM471 516q0 -63 30.5 -101t80.5 -38q134 0 209 215l45 129q24 68 24 106q0 51 -31 86t-77 35q-65 0 -131 -64.5t-108 -166t-42 -201.5z" />
<glyph unicode="A" horiz-adv-x="1265" d="M14 43l512 1323h234l491 -1323l-243 -78l-140 393h-475l-145 -393zM465 563h340l-96 281q-48 139 -72 280q-32 -153 -76 -280z" />
<glyph unicode="B" horiz-adv-x="1179" d="M150 0l6 1366l282 4h115q128 0 208.5 -18.5t145.5 -61.5q69 -46 107.5 -121t38.5 -165q0 -126 -64 -207t-182 -103q134 -26 203 -107.5t69 -211.5q0 -137 -83.5 -234.5t-229.5 -128.5q-28 -6 -109 -11t-137 -5zM399 188h86q119 0 151 3t73 18q53 20 82.5 67t29.5 113 q0 58 -26 103t-72 67q-41 20 -85.5 26.5t-139.5 6.5h-99v-404zM403 786h93q84 0 123 5t73 20q51 23 82 72t31 106q0 51 -25 94.5t-65 65.5q-34 17 -75.5 23t-129.5 6h-107v-392z" />
<glyph unicode="C" horiz-adv-x="1286" d="M94 682q0 151 53.5 284.5t146 228t222.5 149.5t277 55q120 0 224.5 -31.5t221.5 -103.5l-106 -185q-157 101 -330 101q-184 0 -314.5 -145t-130.5 -351q0 -136 59 -250.5t161.5 -181t224.5 -66.5q173 0 330 101l106 -185q-119 -72 -222.5 -103.5t-223.5 -31.5 q-197 0 -357 93t-251 257t-91 365z" />
<glyph unicode="D" horiz-adv-x="1417" d="M150 0l6 1366l344 4q147 0 221 -8q73 -6 157 -35t152 -72q145 -91 222 -236t77 -327q0 -205 -97 -364.5t-271.5 -247.5t-397.5 -88h-57zM406 203h96q138 0 217.5 18t150.5 64q92 60 144.5 167t52.5 236q0 128 -51.5 230.5t-145.5 160.5q-71 44 -152 62t-214 18h-94z" />
<glyph unicode="E" horiz-adv-x="997" d="M150 0l6 1366h729v-211h-471v-350h469v-213h-471v-377h481v-215h-743z" />
<glyph unicode="F" horiz-adv-x="972" d="M150 0l6 1366h762v-215h-504v-356h495v-217h-497l-2 -578h-260z" />
<glyph unicode="G" horiz-adv-x="1388" d="M94 672q0 207 94.5 373.5t262.5 260t378 93.5q213 0 433 -107l-99 -190q-172 88 -321 88q-209 0 -347.5 -145t-138.5 -365t134 -361t341 -141q80 0 195 37l2 479h260l-4 -631q-157 -53 -265 -74.5t-218 -21.5q-203 0 -364.5 90t-252 251.5t-90.5 363.5z" />
<glyph unicode="H" horiz-adv-x="1425" d="M150 0l6 1366h260l-2 -549h604l2 549h260l-6 -1366h-260l2 596h-602l-4 -596h-260z" />
<glyph unicode="I" horiz-adv-x="559" d="M150 0l6 1366h258l-6 -1366h-258z" />
<glyph unicode="J" horiz-adv-x="722" d="M0 -18l8 196q49 -6 68 -6q147 0 200 90q23 37 32 100t9 191l5 813h258l-5 -868q0 -163 -24.5 -251.5t-87.5 -154.5q-55 -58 -137 -91.5t-170 -33.5q-51 0 -156 15z" />
<glyph unicode="K" horiz-adv-x="1175" d="M150 0l6 1366h254l-2 -643l563 678l184 -154l-483 -549l489 -598l-209 -153l-546 700l-3 -647h-253z" />
<glyph unicode="L" horiz-adv-x="948" d="M150 0l6 1366h258l-4 -1153h524v-213h-784z" />
<glyph unicode="M" horiz-adv-x="1808" d="M68 12l229 1354h260l227 -709q73 -227 111 -450h6q18 110 39 186.5t86 263.5l246 709h258l209 -1354l-252 -37l-86 697q-23 180 -23 395v72h-6q-20 -163 -115 -451l-227 -688h-266l-225 700q-72 227 -97 439h-4v-74q0 -70 -9.5 -199t-20.5 -209l-99 -682z" />
<glyph unicode="N" horiz-adv-x="1415" d="M150 0l6 1319l237 70l481 -762q118 -185 189 -357q-49 257 -49 435v661h256l-6 -1327l-246 -70l-473 750q-117 187 -191 352q2 -14 7.5 -39t7.5 -37q24 -130 29 -175.5t5 -114.5v-705h-253z" />
<glyph unicode="O" horiz-adv-x="1640" d="M94 692q0 200 96 362t266 253.5t380 91.5q198 0 362.5 -94t259 -257.5t94.5 -361.5q0 -152 -56 -285.5t-153.5 -228.5t-234.5 -150t-293 -55q-155 0 -289.5 54.5t-229 149.5t-148.5 230t-54 291zM360 678q0 -220 130 -361t333 -141q201 0 333 145.5t132 366.5 q0 218 -131 357t-336 139q-200 0 -330.5 -143t-130.5 -363z" />
<glyph unicode="P" horiz-adv-x="1079" d="M150 0l6 1366l221 4h102q146 0 233 -17.5t156 -60.5q83 -53 127.5 -140.5t44.5 -201.5q0 -209 -143 -319q-70 -55 -159.5 -79t-227.5 -24h-102l-2 -528h-256zM410 735h79q78 0 120.5 8t78.5 31q90 55 90 174q0 60 -23.5 106.5t-66.5 71.5q-36 21 -78.5 29t-120.5 8h-79 v-428z" />
<glyph unicode="Q" horiz-adv-x="1640" d="M94 682q0 151 55.5 284.5t152 228t232 149.5t289.5 55q205 0 371.5 -92.5t261 -256t94.5 -364.5q0 -166 -64.5 -306t-187.5 -243l295 -153l-127 -179l-372 209q-125 -47 -279 -47t-288 54t-229 148.5t-149.5 227.5t-54.5 285zM360 680q0 -219 129.5 -360.5t329.5 -141.5 q203 0 335 144t132 366q0 220 -130.5 359t-336.5 139q-198 0 -328.5 -143.5t-130.5 -362.5z" />
<glyph unicode="R" horiz-adv-x="1204" d="M150 0l6 1366l190 4h170q148 0 223.5 -15t143.5 -57q82 -51 128 -140t46 -195q0 -134 -79 -233.5t-202 -119.5q76 -47 150 -153l260 -367l-225 -137l-246 362q-44 66 -100 135.5t-74 81.5q-23 15 -82 15h-49l-2 -547h-258zM412 752h80q81 0 125.5 7t80.5 27 q46 23 72.5 70t26.5 105q0 106 -71.5 154t-229.5 48h-84v-411z" />
<glyph unicode="S" horiz-adv-x="974" d="M76 991q0 179 124.5 293.5t317.5 114.5q104 0 196.5 -28t198.5 -91l-104 -180q-83 50 -142 70t-120 20q-95 0 -155 -50t-60 -130q0 -91 80 -148q20 -15 147 -74l90 -43q254 -120 254 -356q0 -183 -129.5 -299.5t-333.5 -116.5q-88 0 -160 21.5t-198 83.5l98 196 q88 -52 141 -71t113 -19q90 0 146.5 52t56.5 135q0 66 -38.5 107.5t-145.5 92.5l-88 41q-154 72 -221.5 160.5t-67.5 218.5z" />
<glyph unicode="T" horiz-adv-x="1042" d="M18 1149v217h1016v-217h-375l-6 -1149h-260l6 1149h-381z" />
<glyph unicode="U" horiz-adv-x="1423" d="M154 553l4 813h262l-4 -741q0 -117 4.5 -166t19.5 -92q31 -86 102.5 -133.5t172.5 -47.5q94 0 164.5 41t101.5 113q22 47 29.5 104.5t7.5 173.5l4 748h258l-2 -805q0 -155 -28.5 -250t-96.5 -172q-152 -172 -444 -172q-301 0 -455 195q-54 68 -77 160t-23 231z" />
<glyph unicode="V" horiz-adv-x="1271" d="M18 1300l252 84l215 -610q117 -331 146 -534q19 101 52 207.5t114 326.5l225 610l242 -84l-512 -1300h-242z" />
<glyph unicode="W" horiz-adv-x="1964" d="M33 1317l246 65l170 -645q75 -284 96 -499h6q27 205 117 499l188 621h262l168 -621q88 -320 113 -499h2q14 107 37 208t78 291l186 645l240 -71l-418 -1311h-267l-198 737q-61 229 -74 377h-6q-14 -132 -86 -377l-215 -737h-264z" />
<glyph unicode="X" horiz-adv-x="1175" d="M29 78l417 612l-399 582l234 129l211 -334q54 -86 104 -186q28 55 113 186l215 334l215 -129l-400 -582l410 -612l-223 -125l-236 375q-48 77 -96 168q-30 -54 -33 -60q-10 -15 -32.5 -51.5t-36.5 -56.5l-242 -375z" />
<glyph unicode="Y" horiz-adv-x="1204" d="M18 1270l226 131l264 -428q61 -102 98 -178q39 73 105 178l264 428l221 -131l-463 -697l-4 -573h-260l4 565z" />
<glyph unicode="Z" horiz-adv-x="1083" d="M55 160l576 874q35 52 84 109h-627v223h860l86 -182l-641 -967h615v-217h-871z" />
<glyph unicode="[" horiz-adv-x="749" d="M162 -438l8 1921h442v-166h-227l-6 -1589h225v-166h-442z" />
<glyph unicode="\" horiz-adv-x="911" d="M82 1358l149 61l646 -1726l-152 -62z" />
<glyph unicode="]" horiz-adv-x="749" d="M141 -272h226l8 1589h-225v166h442l-8 -1921h-443v166z" />
<glyph unicode="^" d="M41 731l324 641h294l324 -641h-235l-236 463l-236 -463h-235z" />
<glyph unicode="_" d="M0 -125h1024v-160h-1024v160z" />
<glyph unicode="`" d="M305 1458h244l182 -311h-143z" />
<glyph unicode="a" horiz-adv-x="1001" d="M84 256q0 101 51 170.5t162 122.5q70 32 136 49.5t185 34.5v67q0 66 -28 102t-80 36q-54 0 -111 -30.5t-155 -111.5l-109 131q141 114 227 153.5t193 39.5q149 0 220 -80.5t71 -247.5v-30l-10 -340v-27q0 -81 13 -113t46 -32q28 0 63 26l58 -123q-64 -42 -113 -60 t-102 -18q-66 0 -105.5 33.5t-56.5 104.5q-110 -140 -268 -140q-122 0 -204.5 81.5t-82.5 201.5zM313 276q0 -54 33 -88t86 -34q50 0 91 21t93 75v235q-141 -37 -202 -63q-46 -22 -73.5 -61.5t-27.5 -84.5z" />
<glyph unicode="b" horiz-adv-x="1112" d="M137 0l6 1483h238v-436q0 -48 -6 -179q85 152 260 152q173 0 287 -141t114 -355q0 -236 -127.5 -392.5t-320.5 -156.5q-152 0 -234 105v-80h-217zM373 252q68 -80 164 -80q112 0 184 95t72 243q0 135 -62 221t-158 86q-116 0 -200 -129v-436z" />
<glyph unicode="c" horiz-adv-x="888" d="M80 483q0 233 130 385t329 152q97 0 175 -36.5t173 -127.5l-139 -137q-57 59 -99 81.5t-94 22.5q-103 0 -166 -90.5t-63 -238.5q0 -141 61.5 -234.5t155.5 -93.5q52 0 96 26.5t106 94.5l138 -133q-97 -103 -177.5 -145t-181.5 -42q-192 0 -318 146.5t-126 369.5z" />
<glyph unicode="d" horiz-adv-x="1107" d="M80 483q0 229 126.5 383t313.5 154q72 0 125 -23t100 -75l3 561h231l-6 -1483h-219v111q-92 -138 -258 -138q-181 0 -298.5 144t-117.5 366zM324 496q0 -138 66 -228t167 -90q117 0 186 133v408q-72 96 -174 96q-106 0 -175.5 -91t-69.5 -228z" />
<glyph unicode="e" horiz-adv-x="1001" d="M80 489q0 230 127 380.5t321 150.5q148 0 247 -78t136 -223q24 -97 29 -248h-623q3 -65 11.5 -103.5t29.5 -78.5q32 -62 81.5 -95.5t107.5 -33.5q61 0 115.5 30.5t123.5 104.5l138 -133q-111 -108 -200.5 -151.5t-201.5 -43.5q-196 0 -319 145t-123 377zM330 639h377 q-6 101 -51.5 157t-120.5 56q-77 0 -130 -55t-75 -158z" />
<glyph unicode="f" horiz-adv-x="632" d="M25 809v180h155v105q0 283 189 366q43 20 100 27.5t162 9.5v-190q-77 -2 -106 -7.5t-52 -23.5q-51 -42 -51 -182v-105h207v-180h-209l-2 -809h-242l2 809h-153z" />
<glyph unicode="g" horiz-adv-x="1069" d="M43 223q0 51 55 106.5t176 125.5q-69 44 -101 100.5t-32 134.5q0 147 107.5 238.5t279.5 91.5q104 0 211 -37h328v-145h-195q32 -34 45 -67t13 -83q0 -141 -106.5 -230t-274.5 -89q-80 0 -168 26q-11 -11 -25 -18q-63 -47 -63 -74q0 -36 59 -45q57 -8 174 -22l86 -11 q118 -13 180.5 -28.5t116.5 -42.5q62 -32 97.5 -92.5t35.5 -135.5q0 -177 -156.5 -291t-398.5 -114q-198 0 -320 81.5t-122 213.5q0 80 55.5 145t173.5 123q-105 22 -155 43q-76 37 -76 96zM258 -154q0 -74 71.5 -123t180.5 -49q123 0 212 61t89 144q0 44 -29 76.5t-80 46.5 q-43 11 -83.5 16.5t-198.5 22.5q-89 -51 -125.5 -94.5t-36.5 -100.5zM365 692q0 -77 48.5 -126.5t123.5 -49.5q77 0 125.5 50.5t48.5 129.5t-48 127.5t-126 48.5q-75 0 -123.5 -51t-48.5 -129z" />
<glyph unicode="h" horiz-adv-x="1091" d="M137 0l6 1483h240l-2 -613q78 82 149 116t162 34q159 0 228 -111q26 -43 36.5 -95t10.5 -144l-4 -670h-244l4 627q0 93 -27.5 136.5t-87.5 43.5q-54 0 -105 -30.5t-124 -108.5l-2 -668h-240z" />
<glyph unicode="i" horiz-adv-x="514" d="M137 0l4 997h242l-4 -997h-242zM143 1184v233h242v-233h-242z" />
<glyph unicode="j" horiz-adv-x="507" d="M-25 -297q65 0 105 25q26 22 35 39t12.5 57t3.5 143l4 1030h240l-6 -1030q-1 -133 -17.5 -215t-58.5 -135.5t-110.5 -74.5t-178.5 -21h-29v182zM137 1186v233h238v-233h-238z" />
<glyph unicode="k" horiz-adv-x="999" d="M137 0l6 1483h238l-4 -828q0 -55 -6 -137q42 62 78 107l348 426l182 -138l-352 -395l348 -444l-199 -137l-405 561l2 -37l2 -92v-369h-238z" />
<glyph unicode="l" horiz-adv-x="516" d="M137 0l6 1477h244l-6 -1477h-244z" />
<glyph unicode="m" horiz-adv-x="1656" d="M137 0l4 997h234l-10 -139q86 87 160 124.5t159 37.5q91 0 152 -43.5t86 -126.5q77 88 158.5 129t181.5 41q74 0 133 -29.5t90 -83.5q26 -42 36.5 -97.5t10.5 -147.5l-4 -662h-244l4 608q0 81 -10 123q-7 36 -34.5 59t-63.5 23q-51 0 -100 -28.5t-126 -102.5l-4 -682 h-241l4 608q0 83 -11 129q-10 34 -37 54t-61 20q-57 0 -110 -32t-115 -103l-2 -676h-240z" />
<glyph unicode="n" horiz-adv-x="1091" d="M137 0l4 997h232l-8 -145q134 168 327 168q75 0 137 -31.5t93 -85.5q45 -75 45 -241l-4 -662h-244l4 590q0 104 -12 141q-12 35 -39.5 55.5t-61.5 20.5q-56 0 -108 -31t-121 -104l-4 -672h-240z" />
<glyph unicode="o" horiz-adv-x="1107" d="M80 494q0 238 135 387t352 149q204 0 334.5 -147t130.5 -377q0 -243 -133.5 -391t-353.5 -148q-207 0 -336 146t-129 381zM324 496q0 -151 63 -244.5t164 -93.5q107 0 171 95t64 255q0 148 -63.5 237t-167.5 89q-103 0 -167 -93.5t-64 -244.5z" />
<glyph unicode="p" horiz-adv-x="1114" d="M135 -465l6 1462h236l-8 -118q109 141 260 141q177 0 294 -143.5t117 -360.5q0 -230 -126.5 -384.5t-315.5 -154.5q-135 0 -223 95l-2 -537h-238zM377 256q67 -82 166 -82q112 0 184 93.5t72 238.5q0 137 -63 224t-163 87q-54 0 -99.5 -29.5t-96.5 -97.5v-434z" />
<glyph unicode="q" horiz-adv-x="1112" d="M80 481q0 226 128 382.5t312 156.5q151 0 236 -113v90h223l-6 -1462h-234l2 559q-94 -119 -247 -119q-179 0 -296.5 144t-117.5 362zM324 494q0 -134 66.5 -225t164.5 -91q57 0 102 30.5t86 96.5v414q-67 98 -174 98q-104 0 -174.5 -93t-70.5 -230z" />
<glyph unicode="r" horiz-adv-x="686" d="M137 0l4 997h228l-9 -223h5q46 123 110.5 180.5t159.5 57.5q15 0 49 -6l-37 -232q-40 4 -55 4q-65 0 -113.5 -39t-99.5 -131l-2 -608h-240z" />
<glyph unicode="s" horiz-adv-x="851" d="M68 61l94 172q137 -88 252 -88q55 0 94 34t39 81t-36 78t-124 59l-57 19q-119 38 -183.5 113t-64.5 176q0 140 100 227.5t260 87.5q94 0 175.5 -25t170.5 -82l-102 -157q-68 46 -119 65t-106 19q-63 0 -106.5 -33t-43.5 -82q0 -65 72 -102q4 -2 9.5 -4t30.5 -10.5 t64 -24.5l62 -25q79 -32 108 -48t56 -44q71 -77 71 -186q0 -64 -29 -127t-79 -105q-91 -82 -270 -82q-89 0 -163.5 20.5t-174.5 73.5z" />
<glyph unicode="t" horiz-adv-x="669" d="M31 809v180h137v365h238v-365h221v-180h-224v-473q-5 -10 0 -53t13 -66q9 -22 31 -36.5t45 -14.5q42 0 108 41l72 -150q-84 -45 -135 -61t-109 -16q-70 0 -129.5 30t-87.5 80q-27 46 -41 122q-9 47 -9 81q0 21 3 37q2 2 2 6v473h-135z" />
<glyph unicode="u" horiz-adv-x="1091" d="M131 336l4 661h242l-2 -612q0 -80 8 -113q9 -43 39.5 -68.5t71.5 -25.5q51 0 100.5 28.5t124.5 100.5l2 690h240l-5 -997h-227v127q-77 -80 -149 -115t-162 -35q-178 0 -250 140q-22 41 -29.5 87t-7.5 132z" />
<glyph unicode="v" horiz-adv-x="968" d="M18 961l236 61l162 -522q53 -173 61 -275q19 130 72 275l188 522l224 -70l-375 -952h-232z" />
<glyph unicode="w" horiz-adv-x="1525" d="M31 963l229 61l117 -434q54 -202 69 -381h7q16 163 77 381l115 407h250l109 -407q67 -258 75 -381h8q15 163 76 381l123 434l215 -72l-313 -952h-238l-108 416q-52 202 -74 364h-6q-16 -133 -74 -354l-115 -426h-239z" />
<glyph unicode="x" horiz-adv-x="964" d="M29 82l315 418l-299 420l203 120l133 -204q67 -102 111 -179q53 95 102 170l141 213l197 -120l-309 -420l317 -418l-211 -129l-143 209q-70 101 -109 174q-65 -105 -108 -168l-148 -215z" />
<glyph unicode="y" horiz-adv-x="954" d="M18 965l234 57l143 -440q42 -128 59 -203t25 -156q12 96 30 167.5t62 201.5l150 430l225 -74l-385 -1018q-88 -232 -188 -322.5t-267 -90.5q-42 0 -67 2v186h39q77 0 123.5 38.5t89.5 129.5l65 141z" />
<glyph unicode="z" horiz-adv-x="862" d="M53 143l400 580q22 34 63 78h-442v196h674l73 -147l-397 -576q-30 -43 -74 -90q67 9 117 9h334v-193h-674z" />
<glyph unicode="{" d="M221 401v209q61 15 88 56.5t27 119.5v318q0 163 84 229q44 35 101.5 45.5t213.5 10.5q17 0 60 -3v-239q-123 0 -161 -33t-38 -137v-236q0 -99 -25 -150t-92 -91q66 -40 91.5 -94t25.5 -152v-238q0 -109 38 -142.5t161 -33.5v-227h-62q-159 0 -215 10t-100 47 q-82 70 -82 242v301q0 88 -26 130.5t-89 57.5z" />
<glyph unicode="|" d="M379 -342v1708h266v-1708h-266z" />
<glyph unicode="}" d="M229 -145q124 0 161.5 32t37.5 138v233q0 98 25.5 151t91.5 93q-66 38 -91.5 92t-25.5 154v235q0 110 -38 143t-161 33v227q55 3 82 3q163 0 226 -18.5t104 -78.5q47 -64 47 -205v-301q0 -86 26 -128.5t89 -57.5v-209q-61 -15 -88 -56.5t-27 -119.5v-319q0 -164 -84 -230 q-44 -35 -100 -44t-215 -9h-60v242z" />
<glyph unicode="~" horiz-adv-x="1366" d="M190 1255q111 267 297 267q75 0 234 -72q84 -38 111.5 -47.5t54.5 -9.5q46 0 84 31.5t76 101.5l131 -109q-59 -140 -132.5 -200t-185.5 -60q-39 0 -79 13.5t-150 64.5q-107 49 -156 49q-43 0 -78 -31.5t-75 -103.5z" />
<glyph unicode="&#xa1;" horiz-adv-x="600" d="M176 -367l4 983h244l-4 -983h-244zM182 756v241h244v-241h-244z" />
<glyph unicode="&#xa2;" horiz-adv-x="1116" d="M205 690q0 221 125.5 365.5t318.5 144.5q30 0 74 -8l33 137l94 -22l-35 -144q46 -27 78 -52t78 -69l-131 -129l-21 19q-26 24 -51 41l-147 -588q14 -2 32 -2q43 0 84 25.5t101 89.5l131 -129q-89 -92 -164 -132t-160 -40q-13 0 -67 4l-43 -166l-95 24l41 162 q-276 130 -276 469zM438 696q0 -175 94 -266l144 578q-10 2 -27 2q-91 0 -151 -89.5t-60 -224.5z" />
<glyph unicode="&#xa3;" horiz-adv-x="1116" d="M92 641v150h217v38q0 129 39 236.5t111 181.5q139 139 401 139q84 0 184 -18l-16 -188q-76 12 -139 12q-280 0 -320 -272q-6 -53 -6 -129h430v-150h-440q-3 -184 -36.5 -284t-108.5 -150h616v-207h-913v178q74 7 114 51t58 139.5t20 272.5h-211z" />
<glyph unicode="&#xa4;" horiz-adv-x="1445" d="M102 1178l138 137l209 -207q89 51 145.5 68.5t128.5 17.5t126.5 -17.5t145.5 -68.5l207 205l135 -137l-200 -201q90 -143 90 -281q0 -69 -18 -125.5t-66 -146.5l200 -201l-135 -137l-200 201q-139 -90 -273 -90q-135 0 -295 88l-200 -199l-136 137l199 201 q-84 128 -84 274q0 70 20 131.5t70 145.5zM451 698q0 -114 79.5 -194t192.5 -80q114 0 194 80t80 194q0 115 -80 195t-196 80q-110 0 -190 -81.5t-80 -193.5z" />
<glyph unicode="&#xa5;" horiz-adv-x="1116" d="M-16 1268l217 133l262 -428q37 -62 98 -178q75 134 103 178l266 428l211 -133l-340 -516h194v-111h-268l-47 -70v-98h313v-111h-315v-362h-246v362h-307v111h309v90l-51 78h-260v111h188z" />
<glyph unicode="&#xa6;" d="M379 313h266v-655h-266v655zM379 655v711h266v-711h-266z" />
<glyph unicode="&#xa7;" horiz-adv-x="1040" d="M84 567q0 86 45.5 148t140.5 106q-72 47 -104.5 104t-32.5 132q0 148 117.5 243t300.5 95q103 0 184 -26t191 -95l-105 -160q-144 96 -280 96q-77 0 -130 -40.5t-53 -98.5q0 -57 49 -91.5t187 -72.5l96 -26q271 -76 271 -279q0 -169 -187 -250q77 -40 112.5 -96.5 t35.5 -138.5q0 -156 -124 -257.5t-313 -101.5q-102 0 -187.5 27t-180.5 90l96 162q84 -49 149 -69.5t136 -20.5q82 0 137 41t55 102q0 51 -40 82.5t-142 60.5l-100 29q-177 51 -250.5 120t-73.5 185zM297 614q0 -56 35.5 -88t130.5 -63l174 -57q60 41 83 72.5t23 72.5 q0 57 -51 96q-27 21 -127 53l-176 56q-52 -40 -72 -70.5t-20 -71.5z" />
<glyph unicode="&#xa8;" d="M242 1196v223h213v-223h-213zM578 1196v223h215v-223h-215z" />
<glyph unicode="&#xa9;" horiz-adv-x="1583" d="M84 682q0 195 95.5 358.5t261 258t362.5 94.5q187 0 347.5 -96t254.5 -260t94 -355q0 -115 -35.5 -223.5t-101 -195.5t-152.5 -152.5t-194.5 -101.5t-222.5 -36q-191 0 -354.5 95t-259 258.5t-95.5 355.5zM211 684q0 -161 78.5 -298t212.5 -216.5t291 -79.5t290.5 79.5 t211 216t77.5 296.5q0 122 -46 232.5t-124 189.5t-186.5 125.5t-229.5 46.5q-155 0 -287.5 -80t-210 -216.5t-77.5 -295.5zM406 686q0 183 110 298.5t285 115.5q141 0 241 -82t111 -205h-123q-19 70 -79.5 110t-149.5 40q-107 0 -171.5 -75.5t-64.5 -201.5 q0 -127 63.5 -201.5t170.5 -74.5q100 0 162.5 52t76.5 144h125q-12 -152 -111.5 -243t-256.5 -91q-175 0 -282 114t-107 300z" />
<glyph unicode="&#xaa;" horiz-adv-x="655" d="M61 705q0 94 80 149t250 78v35q0 71 -57 71q-33 0 -68.5 -17.5t-97.5 -66.5l-78 88q92 70 147 94.5t123 24.5q189 0 189 -198v-19l-6 -201v-16q0 -78 28 -78q16 0 43 19l43 -86q-80 -50 -143 -50q-85 0 -104 70q-66 -72 -164 -72q-78 0 -131.5 50.5t-53.5 124.5zM219 715 q0 -29 18.5 -47.5t47.5 -18.5q50 0 106 53v127q-77 -17 -115 -34q-57 -26 -57 -80z" />
<glyph unicode="&#xab;" horiz-adv-x="985" d="M57 506l338 393l103 -76l-213 -317l198 -318l-104 -73zM453 506l338 393l102 -76l-213 -317l199 -318l-103 -73z" />
<glyph unicode="&#xac;" d="M68 356v232h886v-588h-258v356h-628z" />
<glyph unicode="&#xad;" horiz-adv-x="464" d="M2 399v219h465v-219h-465z" />
<glyph unicode="&#xae;" horiz-adv-x="1583" d="M84 682q0 196 95 359t260.5 257.5t363.5 94.5q187 0 347.5 -96t254.5 -260t94 -355q0 -115 -35.5 -223.5t-101 -195.5t-152.5 -152.5t-194.5 -101.5t-222.5 -36q-191 0 -354.5 95t-259 258.5t-95.5 355.5zM211 684q0 -161 78 -298t212 -216.5t292 -79.5q157 0 290.5 79.5 t211 216t77.5 296.5q0 122 -46 232.5t-124 189.5t-186.5 125.5t-229.5 46.5q-155 0 -287.5 -80t-210 -216.5t-77.5 -295.5zM492 289v792h335q121 0 183 -37q104 -63 104 -184q0 -133 -137 -192q72 -28 96 -77.5t29 -176.5q3 -92 20 -125h-151q-16 27 -23 155 q-3 62 -14.5 95.5t-36.5 50.5q-42 31 -121 31h-127v-332h-157zM649 715h137q88 0 129 33t41 102q0 67 -37.5 99t-117.5 32h-152v-266z" />
<glyph unicode="&#xaf;" d="M242 1266v125h553v-125h-553z" />
<glyph unicode="&#xb0;" d="M201 1057q0 132 91.5 222.5t225.5 90.5q125 0 215 -92t90 -219q0 -131 -90 -222.5t-219 -91.5q-130 0 -221.5 91.5t-91.5 220.5zM309 1059q0 -86 59.5 -146.5t143.5 -60.5q83 0 143 60t60 143q0 88 -60.5 148.5t-146.5 60.5q-79 0 -139 -61.5t-60 -143.5z" />
<glyph unicode="&#xb1;" d="M29 68v127h966v-127h-966zM29 674v127h415v403h134v-403h417v-127h-417v-393h-134v393h-415z" />
<glyph unicode="&#xb2;" horiz-adv-x="747" d="M39 1260q75 66 140 92t153 26q138 0 223.5 -75.5t85.5 -196.5q0 -204 -330 -428q31 4 101 4h231v-135h-557l-43 100q150 116 200 156t91 78q71 67 100 114.5t29 100.5q0 61 -41.5 101t-104.5 40q-88 0 -182 -76z" />
<glyph unicode="&#xb3;" horiz-adv-x="747" d="M51 621l80 104q45 -30 85 -42.5t91 -12.5q71 0 114.5 30.5t43.5 81.5q0 31 -19 58t-49 39q-42 18 -133 18h-86v131h86q86 0 129 14q32 11 52 37t20 58q0 46 -36 75t-93 29q-95 0 -193 -63l-82 106q75 49 140 69.5t147 20.5q130 0 208.5 -61t78.5 -162q0 -63 -34.5 -111.5 t-94.5 -70.5q63 -19 99 -69t36 -118q0 -112 -88 -179.5t-234 -67.5q-84 0 -143.5 19t-124.5 67z" />
<glyph unicode="&#xb4;" d="M305 1147l182 311h244l-282 -311h-144z" />
<glyph unicode="&#xb5;" d="M76 -346v1329h223v-528q0 -87 10 -128.5t39 -78.5q67 -82 160 -82q100 0 158.5 81.5t58.5 219.5v516h223v-983h-223v154q-35 -91 -89 -134t-132 -43q-69 0 -117 31.5t-88 102.5v-457h-223z" />
<glyph unicode="&#xb6;" horiz-adv-x="1228" d="M92 1004q0 105 47 188t133 125q95 49 277 49h510v-102h-111v-1495h-131v1495h-192v-1495h-131v882q-16 -2 -37 -2q-159 0 -262 100t-103 255z" />
<glyph unicode="&#xb7;" horiz-adv-x="663" d="M199 369v260h264v-260h-264z" />
<glyph unicode="&#xb8;" d="M289 -395l39 80q78 -35 147 -35q41 0 69.5 22.5t28.5 53.5t-23 48t-63 17q-41 0 -84 -14l-38 55l94 168h96l-70 -137q45 14 86 14q72 0 117 -37t45 -98q0 -83 -66 -133.5t-175 -50.5q-106 0 -203 47z" />
<glyph unicode="&#xb9;" horiz-adv-x="747" d="M72 1126l309 240h154l-5 -819h-170l2 555q0 43 5 84l-195 -164z" />
<glyph unicode="&#xba;" horiz-adv-x="722" d="M59 844q0 144 86.5 233.5t223.5 89.5q131 0 214 -89t83 -228q0 -146 -86 -235t-226 -89q-131 0 -213 88.5t-82 229.5zM227 846q0 -86 36.5 -139.5t96.5 -53.5q63 0 100.5 54.5t37.5 146.5q0 83 -37 133.5t-99 50.5q-60 0 -97.5 -53t-37.5 -139z" />
<glyph unicode="&#xbb;" horiz-adv-x="985" d="M96 193l211 315l-196 317l102 74l324 -391l-338 -393zM492 193l213 315l-199 317l102 74l324 -391l-338 -393z" />
<glyph unicode="&#xbc;" horiz-adv-x="1703" d="M72 1126l309 240h154l-5 -819h-170l2 555q0 43 5 84l-195 -164zM465 -10l668 1440l110 -56l-665 -1444zM989 295l391 512h174v-494h84v-133h-86v-180h-157v180h-361zM1157 307h238v211q0 26 2 51q0 25 2 78q-43 -68 -96 -141z" />
<glyph unicode="&#xbd;" horiz-adv-x="1703" d="M72 1126l309 240h154l-5 -819h-170l2 555q0 43 5 84l-195 -164zM465 -10l668 1440l110 -56l-665 -1444zM993 713q75 66 140 92t153 26q138 0 223.5 -75.5t85.5 -196.5q0 -202 -329 -428q31 4 100 4h231v-135h-557l-43 100q222 170 291 234q72 66 100.5 113.5t28.5 101.5 q0 61 -41 101t-104 40q-85 0 -185 -76z" />
<glyph unicode="&#xbe;" horiz-adv-x="1703" d="M51 621l80 104q45 -30 85 -42.5t91 -12.5q71 0 114.5 30.5t43.5 81.5q0 31 -19 58t-49 39q-42 18 -133 18h-86v131h86q86 0 129 14q32 11 52 37t20 58q0 46 -36 75t-93 29q-95 0 -193 -63l-82 106q75 49 140 69.5t147 20.5q130 0 208.5 -61t78.5 -162q0 -63 -34.5 -111.5 t-94.5 -70.5q63 -19 99 -69t36 -118q0 -112 -88 -179.5t-234 -67.5q-84 0 -143.5 19t-124.5 67zM465 -10l668 1440l110 -56l-668 -1444zM987 295l393 512h174v-494h84v-133h-88v-180h-157v180h-359zM1157 307h238v211q0 26 2 51q0 25 2 78q-70 -106 -96 -141z" />
<glyph unicode="&#xbf;" horiz-adv-x="944" d="M68 -8q0 177 180 311l55 41q83 62 110 116t27 152h226v-32q0 -129 -37 -200t-156 -173l-53 -45q-61 -52 -85 -91t-24 -85q0 -80 60 -131.5t153 -51.5q71 0 133 25t129 80l115 -152q-99 -79 -187.5 -112t-197.5 -33q-197 0 -322.5 107t-125.5 274zM428 756v241h244v-241 h-244z" />
<glyph unicode="&#xc0;" horiz-adv-x="1265" d="M14 43l512 1323h234l491 -1323l-243 -78l-140 393h-475l-145 -393zM428 1812h244l182 -311h-143zM465 563h340l-96 281q-48 139 -72 280q-32 -153 -76 -280z" />
<glyph unicode="&#xc1;" horiz-adv-x="1265" d="M14 43l512 1323h234l491 -1323l-243 -78l-140 393h-475l-145 -393zM428 1501l182 311h244l-283 -311h-143zM465 563h340l-96 281q-48 139 -72 280q-32 -153 -76 -280z" />
<glyph unicode="&#xc2;" horiz-adv-x="1265" d="M14 43l512 1323h234l491 -1323l-243 -78l-140 393h-475l-145 -393zM362 1499l177 311h213l163 -311h-159l-119 207l-121 -207h-154zM465 563h340l-96 281q-48 139 -72 280q-32 -153 -76 -280z" />
<glyph unicode="&#xc3;" horiz-adv-x="1265" d="M14 43l512 1323h234l491 -1323l-243 -78l-140 393h-475l-145 -393zM362 1540q6 101 46.5 157t107.5 56q46 0 176 -39q31 -10 64 -10q26 0 44 20t21 54h94q3 -18 3 -27q0 -75 -46 -129.5t-110 -54.5q-52 0 -170 35q-43 12 -72 12q-52 0 -61 -74h-97zM465 563h340l-96 281 q-48 139 -72 280q-32 -153 -76 -280z" />
<glyph unicode="&#xc4;" horiz-adv-x="1265" d="M14 43l512 1323h234l491 -1323l-243 -78l-140 393h-475l-145 -393zM373 1538v223h213v-223h-213zM465 563h340l-96 281q-48 139 -72 280q-32 -153 -76 -280zM709 1538v223h215v-223h-215z" />
<glyph unicode="&#xc5;" horiz-adv-x="1265" d="M14 43l512 1323h234l491 -1323l-243 -78l-140 393h-475l-145 -393zM438 1683q0 83 61.5 141t149.5 58q83 0 143 -58.5t60 -140.5q0 -83 -60.5 -141.5t-146.5 -58.5t-146.5 58.5t-60.5 141.5zM465 563h340l-96 281q-48 139 -72 280q-32 -153 -76 -280zM551 1683 q0 -41 27.5 -69.5t66.5 -28.5q40 0 67 28.5t27 69.5q0 40 -28 68.5t-68 28.5q-37 0 -64.5 -29.5t-27.5 -67.5z" />
<glyph unicode="&#xc6;" horiz-adv-x="1703" d="M-27 66l752 1300h862v-213h-471v-350h459v-213h-461v-377h485v-213h-737v385h-434l-238 -428zM539 590h325l10 604z" />
<glyph unicode="&#xc7;" horiz-adv-x="1284" d="M94 676q0 204 91 369.5t251.5 259.5t358.5 94q120 0 224.5 -31.5t221.5 -103.5l-106 -185q-154 101 -330 101q-189 0 -319 -144.5t-130 -355.5t125.5 -351.5t313.5 -140.5q179 0 331 111l109 -180q-121 -73 -219 -105.5t-215 -36.5l-74 -114q48 14 88 14 q71 0 115.5 -37.5t44.5 -97.5q0 -80 -68 -132t-172 -52q-49 0 -91.5 9t-115.5 36l41 84q76 -35 144 -35q47 0 74.5 20.5t27.5 55.5q0 29 -22.5 47t-59.5 18q-50 0 -86 -16l-39 51l99 149q-270 28 -441.5 223t-171.5 476z" />
<glyph unicode="&#xc8;" horiz-adv-x="997" d="M150 0l6 1366h729v-211h-471v-350h469v-213h-471v-377h481v-215h-743zM293 1812h244l182 -311h-144z" />
<glyph unicode="&#xc9;" horiz-adv-x="997" d="M150 0l6 1366h729v-211h-471v-350h469v-213h-471v-377h481v-215h-743zM293 1501l182 311h244l-283 -311h-143z" />
<glyph unicode="&#xca;" horiz-adv-x="997" d="M150 0l6 1366h729v-211h-471v-350h469v-213h-471v-377h481v-215h-743zM227 1499l176 311h213l164 -311h-159l-119 207l-121 -207h-154z" />
<glyph unicode="&#xcb;" horiz-adv-x="997" d="M150 0l6 1366h729v-211h-471v-350h469v-213h-471v-377h481v-215h-743zM229 1538v223h213v-223h-213zM565 1538v223h215v-223h-215z" />
<glyph unicode="&#xcc;" horiz-adv-x="559" d="M74 1812h243l183 -311h-144zM150 0l6 1366h258l-6 -1366h-258z" />
<glyph unicode="&#xcd;" horiz-adv-x="559" d="M74 1501l182 311h244l-283 -311h-143zM150 0l6 1366h258l-6 -1366h-258z" />
<glyph unicode="&#xce;" horiz-adv-x="559" d="M10 1499l176 311h213l164 -311h-160l-118 207l-121 -207h-154zM152 0l6 1366h258l-6 -1366h-258z" />
<glyph unicode="&#xcf;" horiz-adv-x="559" d="M51 1509v224h185v-224h-185zM150 0l6 1366h258l-6 -1366h-258zM334 1509v224h186v-224h-186z" />
<glyph unicode="&#xd0;" horiz-adv-x="1417" d="M41 655v111h113l2 600l344 4q147 0 221 -8q73 -6 158.5 -35.5t152.5 -71.5q143 -91 220 -237.5t77 -327.5q0 -204 -97 -363t-271.5 -247t-397.5 -88h-55l-358 8l2 655h-111zM406 203h96q138 0 217.5 18t150.5 64q92 60 144.5 166.5t52.5 234.5q0 129 -51.5 231.5 t-145.5 161.5q-71 44 -152 62t-214 18h-94v-393h256v-111h-260v-452z" />
<glyph unicode="&#xd1;" horiz-adv-x="1415" d="M150 0l6 1319l237 70l481 -762q118 -185 189 -357q-49 257 -49 435v661h256l-6 -1327l-246 -70l-473 750q-117 187 -191 352q2 -14 7.5 -39t7.5 -37q24 -130 29 -175.5t5 -114.5v-705h-253zM436 1540q6 101 46.5 157t107.5 56q46 0 176 -39q31 -10 63 -10q26 0 44.5 20.5 t21.5 53.5h94q2 -12 2 -27q0 -75 -45.5 -129.5t-109.5 -54.5q-52 0 -170 35q-44 12 -72 12q-53 0 -62 -74h-96z" />
<glyph unicode="&#xd2;" horiz-adv-x="1640" d="M94 692q0 200 96 362t266 253.5t380 91.5q198 0 362.5 -94t259 -257.5t94.5 -361.5q0 -152 -56 -285.5t-153.5 -228.5t-234.5 -150t-293 -55q-155 0 -289.5 54.5t-229 149.5t-148.5 230t-54 291zM360 678q0 -220 130 -361t333 -141q201 0 333 145.5t132 366.5 q0 218 -131 357t-336 139q-200 0 -330.5 -143t-130.5 -363zM614 1812h244l182 -311h-143z" />
<glyph unicode="&#xd3;" horiz-adv-x="1640" d="M94 692q0 200 96 362t266 253.5t380 91.5q198 0 362.5 -94t259 -257.5t94.5 -361.5q0 -152 -56 -285.5t-153.5 -228.5t-234.5 -150t-293 -55q-155 0 -289.5 54.5t-229 149.5t-148.5 230t-54 291zM360 678q0 -220 130 -361t333 -141q201 0 333 145.5t132 366.5 q0 218 -131 357t-336 139q-200 0 -330.5 -143t-130.5 -363zM614 1501l183 311h243l-282 -311h-144z" />
<glyph unicode="&#xd4;" horiz-adv-x="1640" d="M94 692q0 200 96 362t266 253.5t380 91.5q198 0 362.5 -94t259 -257.5t94.5 -361.5q0 -152 -56 -285.5t-153.5 -228.5t-234.5 -150t-293 -55q-155 0 -289.5 54.5t-229 149.5t-148.5 230t-54 291zM360 678q0 -220 130 -361t333 -141q201 0 333 145.5t132 366.5 q0 218 -131 357t-336 139q-200 0 -330.5 -143t-130.5 -363zM549 1499l176 311h213l164 -311h-160l-119 207l-121 -207h-153z" />
<glyph unicode="&#xd5;" horiz-adv-x="1640" d="M94 692q0 200 96 362t266 253.5t380 91.5q198 0 362.5 -94t259 -257.5t94.5 -361.5q0 -152 -56 -285.5t-153.5 -228.5t-234.5 -150t-293 -55q-155 0 -289.5 54.5t-229 149.5t-148.5 230t-54 291zM360 678q0 -220 130 -361t333 -141q201 0 333 145.5t132 366.5 q0 218 -131 357t-336 139q-200 0 -330.5 -143t-130.5 -363zM551 1540q6 101 46.5 157t107.5 56q46 0 176 -39q31 -10 63 -10q26 0 44.5 20.5t21.5 53.5h94q2 -12 2 -27q0 -75 -46 -129.5t-110 -54.5q-52 0 -170 35q-43 12 -71 12q-53 0 -62 -74h-96z" />
<glyph unicode="&#xd6;" horiz-adv-x="1640" d="M94 692q0 200 96 362t266 253.5t380 91.5q198 0 362.5 -94t259 -257.5t94.5 -361.5q0 -152 -56 -285.5t-153.5 -228.5t-234.5 -150t-293 -55q-155 0 -289.5 54.5t-229 149.5t-148.5 230t-54 291zM360 678q0 -220 130 -361t333 -141q201 0 333 145.5t132 366.5 q0 218 -131 357t-336 139q-200 0 -330.5 -143t-130.5 -363zM541 1538v223h213v-223h-213zM877 1538v223h215v-223h-215z" />
<glyph unicode="&#xd7;" d="M106 412l316 313l-311 309l90 90l309 -311l313 315l92 -94l-313 -313l311 -311l-90 -91l-311 314l-311 -316z" />
<glyph unicode="&#xd8;" horiz-adv-x="1640" d="M94 676q0 155 55.5 289t152 229.5t232.5 150t293 54.5q129 0 235 -34.5t204 -109.5l172 193l84 -76l-172 -184q202 -211 202 -504q0 -151 -56 -284.5t-152.5 -228t-232.5 -149.5t-290 -55q-273 0 -444 142l-176 -193l-84 76l178 190q-103 100 -152 220t-49 274zM360 680 q0 -98 23 -173.5t76 -150.5l651 731q-66 52 -130.5 74.5t-148.5 22.5q-207 0 -339 -141t-132 -363zM535 276q126 -100 284 -100q203 0 336 144t133 364q0 183 -98 324z" />
<glyph unicode="&#xd9;" horiz-adv-x="1423" d="M154 553l4 813h262l-4 -741q0 -117 4.5 -166t19.5 -92q31 -86 102.5 -133.5t172.5 -47.5q94 0 164.5 41t101.5 113q22 47 29.5 104.5t7.5 173.5l4 748h258l-2 -805q0 -155 -28.5 -250t-96.5 -172q-152 -172 -444 -172q-301 0 -455 195q-54 68 -77 160t-23 231zM508 1812 h244l182 -311h-143z" />
<glyph unicode="&#xda;" horiz-adv-x="1423" d="M154 553l4 813h262l-4 -741q0 -117 4.5 -166t19.5 -92q31 -86 102.5 -133.5t172.5 -47.5q94 0 164.5 41t101.5 113q22 47 29.5 104.5t7.5 173.5l4 748h258l-2 -805q0 -155 -28.5 -250t-96.5 -172q-152 -172 -444 -172q-301 0 -455 195q-54 68 -77 160t-23 231zM508 1501 l182 311h244l-283 -311h-143z" />
<glyph unicode="&#xdb;" horiz-adv-x="1423" d="M154 553l4 813h262l-4 -741q0 -117 4.5 -166t19.5 -92q31 -86 102.5 -133.5t172.5 -47.5q94 0 164.5 41t101.5 113q22 47 29.5 104.5t7.5 173.5l4 748h258l-2 -805q0 -155 -28.5 -250t-96.5 -172q-152 -172 -444 -172q-301 0 -455 195q-54 68 -77 160t-23 231zM442 1499 l176 311h213l164 -311h-159l-119 207l-121 -207h-154z" />
<glyph unicode="&#xdc;" horiz-adv-x="1423" d="M154 553l4 813h262l-4 -741q0 -117 4.5 -166t19.5 -92q31 -86 102.5 -133.5t172.5 -47.5q94 0 164.5 41t101.5 113q22 47 29.5 104.5t7.5 173.5l4 748h258l-2 -805q0 -155 -28.5 -250t-96.5 -172q-152 -172 -444 -172q-301 0 -455 195q-54 68 -77 160t-23 231zM451 1538 v223h213v-223h-213zM786 1538v223h215v-223h-215z" />
<glyph unicode="&#xdd;" horiz-adv-x="1204" d="M18 1270l226 131l264 -428q61 -102 98 -178q39 73 105 178l264 428l221 -131l-463 -697l-4 -573h-260l4 565zM395 1501l183 311h243l-282 -311h-144z" />
<glyph unicode="&#xde;" horiz-adv-x="1224" d="M125 0v1366h264v-164h307q221 0 352.5 -119.5t131.5 -320.5q0 -193 -127 -309.5t-338 -116.5h-326v-336h-264zM389 543h262q126 0 195 58.5t69 164.5q0 112 -63.5 165.5t-194.5 53.5h-268v-442z" />
<glyph unicode="&#xdf;" horiz-adv-x="1099" d="M137 0l4 1034q2 221 111.5 342t308.5 121q151 0 244.5 -77t93.5 -201q0 -44 -17 -95.5t-44 -89.5l-54 -73q-51 -69 -51 -93q0 -14 11 -29t49 -53l65 -65q96 -96 139 -184.5t43 -184.5q0 -175 -121.5 -277t-330.5 -102q-24 0 -99 7l15 182q66 -4 86 -4q94 0 153.5 51 t59.5 133q0 54 -30.5 109.5t-110.5 146.5l-56 64q-62 71 -83 105t-21 64q0 26 12 52.5t45 77.5l35 53q76 116 76 184q0 48 -34 80.5t-85 32.5q-40 0 -76 -20t-55 -52q-37 -62 -37 -205l-4 -1034h-242z" />
<glyph unicode="&#xe0;" horiz-adv-x="1001" d="M84 256q0 101 51 170.5t162 122.5q70 32 136 49.5t185 34.5v67q0 66 -28 102t-80 36q-54 0 -111 -30.5t-155 -111.5l-109 131q141 114 227 153.5t193 39.5q149 0 220 -80.5t71 -247.5v-30l-10 -340v-27q0 -81 13 -113t46 -32q28 0 63 26l58 -123q-64 -42 -113 -60 t-102 -18q-66 0 -105.5 33.5t-56.5 104.5q-110 -140 -268 -140q-122 0 -204.5 81.5t-82.5 201.5zM295 1458h244l182 -311h-143zM313 276q0 -54 33 -88t86 -34q50 0 91 21t93 75v235q-141 -37 -202 -63q-46 -22 -73.5 -61.5t-27.5 -84.5z" />
<glyph unicode="&#xe1;" horiz-adv-x="1001" d="M84 256q0 101 51 170.5t162 122.5q70 32 136 49.5t185 34.5v67q0 66 -28 102t-80 36q-54 0 -111 -30.5t-155 -111.5l-109 131q141 114 227 153.5t193 39.5q149 0 220 -80.5t71 -247.5v-30l-10 -340v-27q0 -81 13 -113t46 -32q28 0 63 26l58 -123q-64 -42 -113 -60 t-102 -18q-66 0 -105.5 33.5t-56.5 104.5q-110 -140 -268 -140q-122 0 -204.5 81.5t-82.5 201.5zM295 1147l182 311h244l-283 -311h-143zM313 276q0 -54 33 -88t86 -34q50 0 91 21t93 75v235q-141 -37 -202 -63q-46 -22 -73.5 -61.5t-27.5 -84.5z" />
<glyph unicode="&#xe2;" horiz-adv-x="1001" d="M84 256q0 101 51 170.5t162 122.5q70 32 136 49.5t185 34.5v67q0 66 -28 102t-80 36q-54 0 -111 -30.5t-155 -111.5l-109 131q141 114 227 153.5t193 39.5q149 0 220 -80.5t71 -247.5v-30l-10 -340v-27q0 -81 13 -113t46 -32q28 0 63 26l58 -123q-64 -42 -113 -60 t-102 -18q-66 0 -105.5 33.5t-56.5 104.5q-110 -140 -268 -140q-122 0 -204.5 81.5t-82.5 201.5zM229 1157l177 311h212l164 -311h-159l-119 207l-121 -207h-154zM313 276q0 -54 33 -88t86 -34q50 0 91 21t93 75v235q-141 -37 -202 -63q-46 -22 -73.5 -61.5t-27.5 -84.5z " />
<glyph unicode="&#xe3;" horiz-adv-x="1001" d="M84 256q0 101 51 170.5t162 122.5q70 32 136 49.5t185 34.5v67q0 66 -28 102t-80 36q-54 0 -111 -30.5t-155 -111.5l-109 131q141 114 227 153.5t193 39.5q149 0 220 -80.5t71 -247.5v-30l-10 -340v-27q0 -81 13 -113t46 -32q28 0 63 26l58 -123q-64 -42 -113 -60 t-102 -18q-66 0 -105.5 33.5t-56.5 104.5q-110 -140 -268 -140q-122 0 -204.5 81.5t-82.5 201.5zM229 1212q6 101 46.5 157t107.5 56q56 0 176 -36q46 -11 64 -11q26 0 44 20t21 52h94q2 -12 2 -27q0 -74 -46 -128t-109 -54q-59 0 -170 33q-44 12 -72 12q-52 0 -61 -74h-97z M313 276q0 -54 33 -88t86 -34q50 0 91 21t93 75v235q-141 -37 -202 -63q-46 -22 -73.5 -61.5t-27.5 -84.5z" />
<glyph unicode="&#xe4;" horiz-adv-x="1001" d="M84 256q0 101 51 170.5t162 122.5q70 32 136 49.5t185 34.5v67q0 66 -28 102t-80 36q-54 0 -111 -30.5t-155 -111.5l-109 131q141 114 227 153.5t193 39.5q149 0 220 -80.5t71 -247.5v-30l-10 -340v-27q0 -81 13 -113t46 -32q28 0 63 26l58 -123q-64 -42 -113 -60 t-102 -18q-66 0 -105.5 33.5t-56.5 104.5q-110 -140 -268 -140q-122 0 -204.5 81.5t-82.5 201.5zM238 1196v223h213v-223h-213zM313 276q0 -54 33 -88t86 -34q50 0 91 21t93 75v235q-141 -37 -202 -63q-46 -22 -73.5 -61.5t-27.5 -84.5zM573 1196v223h215v-223h-215z" />
<glyph unicode="&#xe5;" horiz-adv-x="1001" d="M84 256q0 101 51 170.5t162 122.5q70 32 136 49.5t185 34.5v67q0 66 -28 102t-80 36q-54 0 -111 -30.5t-155 -111.5l-109 131q141 114 227 153.5t193 39.5q149 0 220 -80.5t71 -247.5v-30l-10 -340v-27q0 -81 13 -113t46 -32q28 0 63 26l58 -123q-64 -42 -113 -60 t-102 -18q-66 0 -105.5 33.5t-56.5 104.5q-110 -140 -268 -140q-122 0 -204.5 81.5t-82.5 201.5zM313 276q0 -54 33 -88t86 -34q50 0 91 21t93 75v235q-141 -37 -202 -63q-46 -22 -73.5 -61.5t-27.5 -84.5zM326 1315q0 82 60 138t146 56q82 0 141.5 -58t59.5 -136 q0 -82 -60 -139.5t-143 -57.5q-86 0 -145 57.5t-59 139.5zM434 1315q0 -40 28 -68t66 -28q40 0 68.5 28t28.5 68t-28.5 68t-68.5 28q-38 0 -66 -28t-28 -68z" />
<glyph unicode="&#xe6;" horiz-adv-x="1540" d="M84 246q0 152 143.5 250.5t397.5 121.5v60q0 78 -26.5 114.5t-82.5 36.5q-54 0 -114 -27.5t-150 -94.5l-107 127q121 98 222 142t204 44q155 0 224 -143q108 143 284 143q130 0 224.5 -71.5t138.5 -203.5q22 -66 30.5 -124t8.5 -154h-635q3 -145 62 -223t165 -78 q62 0 113 26.5t117 92.5l139 -125q-102 -103 -191 -146t-204 -43q-221 0 -334 168q-87 -90 -168.5 -130t-177.5 -40q-123 0 -203 78.5t-80 198.5zM313 260q0 -49 34.5 -84t82.5 -35q57 0 108.5 28.5t112.5 94.5q-22 94 -26 197q-122 -19 -191 -47q-55 -23 -88 -65t-33 -89z M850 633h401q-18 213 -180 213q-82 0 -138.5 -54.5t-82.5 -158.5z" />
<glyph unicode="&#xe7;" horiz-adv-x="888" d="M80 483q0 233 130 385t329 152q98 0 175.5 -36.5t172.5 -127.5l-139 -137q-57 59 -99 81.5t-94 22.5q-103 0 -166 -90.5t-63 -238.5q0 -143 61.5 -236.5t155.5 -93.5q52 0 96 27t106 96l138 -135q-88 -96 -169.5 -140t-174.5 -45l-68 -104q52 14 84 14q72 0 117 -37 t45 -98q0 -83 -66 -133.5t-174 -50.5t-205 47l39 80q75 -35 148 -35q41 0 69.5 23t28.5 55q0 29 -23.5 47t-62.5 18q-45 0 -84 -16l-39 55l98 143q-172 35 -269 170t-97 338z" />
<glyph unicode="&#xe8;" horiz-adv-x="1001" d="M80 489q0 230 127 380.5t321 150.5q148 0 247 -78t136 -223q24 -97 29 -248h-623q3 -65 11.5 -103.5t29.5 -78.5q32 -62 81.5 -95.5t107.5 -33.5q61 0 115.5 30.5t123.5 104.5l138 -133q-111 -108 -200.5 -151.5t-201.5 -43.5q-196 0 -319 145t-123 377zM293 1458h244 l182 -311h-144zM330 639h377q-6 101 -51.5 157t-120.5 56q-77 0 -130 -55t-75 -158z" />
<glyph unicode="&#xe9;" horiz-adv-x="1001" d="M80 489q0 230 127 380.5t321 150.5q148 0 247 -78t136 -223q24 -97 29 -248h-623q3 -65 11.5 -103.5t29.5 -78.5q32 -62 81.5 -95.5t107.5 -33.5q61 0 115.5 30.5t123.5 104.5l138 -133q-111 -108 -200.5 -151.5t-201.5 -43.5q-196 0 -319 145t-123 377zM293 1147 l182 311h244l-283 -311h-143zM330 639h377q-6 101 -51.5 157t-120.5 56q-77 0 -130 -55t-75 -158z" />
<glyph unicode="&#xea;" horiz-adv-x="1001" d="M80 489q0 230 127 380.5t321 150.5q148 0 247 -78t136 -223q24 -97 29 -248h-623q3 -65 11.5 -103.5t29.5 -78.5q32 -62 81.5 -95.5t107.5 -33.5q61 0 115.5 30.5t123.5 104.5l138 -133q-111 -108 -200.5 -151.5t-201.5 -43.5q-196 0 -319 145t-123 377zM229 1157 l177 311h212l164 -311h-159l-119 207l-121 -207h-154zM330 639h377q-6 101 -51.5 157t-120.5 56q-77 0 -130 -55t-75 -158z" />
<glyph unicode="&#xeb;" horiz-adv-x="1001" d="M80 489q0 230 127 380.5t321 150.5q148 0 247 -78t136 -223q24 -97 29 -248h-623q3 -65 11.5 -103.5t29.5 -78.5q32 -62 81.5 -95.5t107.5 -33.5q61 0 115.5 30.5t123.5 104.5l138 -133q-111 -108 -200.5 -151.5t-201.5 -43.5q-196 0 -319 145t-123 377zM231 1196v223 h213v-223h-213zM330 639h377q-6 101 -51.5 157t-120.5 56q-77 0 -130 -55t-75 -158zM567 1196v223h215v-223h-215z" />
<glyph unicode="&#xec;" horiz-adv-x="514" d="M51 1458h244l182 -311h-143zM137 0l4 997h242l-4 -997h-242z" />
<glyph unicode="&#xed;" horiz-adv-x="514" d="M51 1147l182 311h244l-282 -311h-144zM137 0l4 997h242l-4 -997h-242z" />
<glyph unicode="&#xee;" horiz-adv-x="514" d="M-14 1157l176 311h213l164 -311h-160l-119 207l-121 -207h-153zM135 0l6 997h242l-6 -997h-242z" />
<glyph unicode="&#xef;" horiz-adv-x="514" d="M23 1149v229h186v-229h-186zM137 0l4 997h242l-6 -997h-240zM317 1149v229h185v-229h-185z" />
<glyph unicode="&#xf0;" horiz-adv-x="1120" d="M63 483q0 129 47.5 235t133.5 169q43 32 135 63q16 5 31 10.5t22 8t8 2.5q142 -17 174 -23q20 -1 28.5 -4.5t31.5 -15.5q-60 95 -101 140t-118 99l-209 -145l-53 82l174 115q-35 21 -97.5 45.5t-109.5 35.5l37 86q132 -34 185.5 -50t102.5 -38l217 150l54 -80l-168 -113 q116 -68 177 -116t116 -117q178 -214 178 -504q0 -223 -119 -371q-144 -178 -381 -178q-221 0 -358.5 142.5t-137.5 371.5zM307 485q0 -160 69 -253t187 -93q117 0 184.5 95.5t67.5 261.5q0 346 -244 346q-119 0 -191.5 -98t-72.5 -259z" />
<glyph unicode="&#xf1;" horiz-adv-x="1091" d="M137 0l4 997h232l-8 -145q134 168 327 168q75 0 137 -31.5t93 -85.5q45 -75 45 -241l-4 -662h-244l4 590q0 104 -12 141q-12 35 -39.5 55.5t-61.5 20.5q-56 0 -108 -31t-121 -104l-4 -672h-240zM276 1212q6 101 46.5 157t107.5 56q56 0 176 -36q46 -11 64 -11q26 0 44 20 t21 52h94q2 -12 2 -27q0 -74 -46 -128t-109 -54q-59 0 -170 33q-44 12 -72 12q-52 0 -61 -74h-97z" />
<glyph unicode="&#xf2;" horiz-adv-x="1107" d="M80 494q0 238 135 387t352 149q204 0 334.5 -147t130.5 -377q0 -243 -133.5 -391t-353.5 -148q-207 0 -336 146t-129 381zM324 496q0 -151 63 -244.5t164 -93.5q107 0 171 95t64 255q0 148 -63.5 237t-167.5 89q-103 0 -167 -93.5t-64 -244.5zM346 1458h244l182 -311 h-143z" />
<glyph unicode="&#xf3;" horiz-adv-x="1107" d="M80 494q0 238 135 387t352 149q204 0 334.5 -147t130.5 -377q0 -243 -133.5 -391t-353.5 -148q-207 0 -336 146t-129 381zM324 496q0 -151 63 -244.5t164 -93.5q107 0 171 95t64 255q0 148 -63.5 237t-167.5 89q-103 0 -167 -93.5t-64 -244.5zM346 1147l182 311h244 l-283 -311h-143z" />
<glyph unicode="&#xf4;" horiz-adv-x="1107" d="M80 494q0 238 135 387t352 149q204 0 334.5 -147t130.5 -377q0 -243 -133.5 -391t-353.5 -148q-207 0 -336 146t-129 381zM283 1157l176 311h213l164 -311h-160l-119 207l-121 -207h-153zM324 496q0 -151 63 -244.5t164 -93.5q107 0 171 95t64 255q0 148 -63.5 237 t-167.5 89q-103 0 -167 -93.5t-64 -244.5z" />
<glyph unicode="&#xf5;" horiz-adv-x="1107" d="M80 494q0 238 135 387t352 149q204 0 334.5 -147t130.5 -377q0 -243 -133.5 -391t-353.5 -148q-207 0 -336 146t-129 381zM283 1212q6 102 46 157.5t107 55.5q56 0 176 -36q46 -11 64 -11q26 0 44 20t21 52h95q2 -12 2 -27q0 -74 -46.5 -128t-109.5 -54q-59 0 -170 33 q-43 12 -72 12q-52 0 -61 -74h-96zM324 496q0 -151 63 -244.5t164 -93.5q107 0 171 95t64 255q0 148 -63.5 237t-167.5 89q-103 0 -167 -93.5t-64 -244.5z" />
<glyph unicode="&#xf6;" horiz-adv-x="1107" d="M80 494q0 238 135 387t352 149q204 0 334.5 -147t130.5 -377q0 -243 -133.5 -391t-353.5 -148q-207 0 -336 146t-129 381zM279 1196v223h213v-223h-213zM324 496q0 -151 63 -244.5t164 -93.5q107 0 171 95t64 255q0 148 -63.5 237t-167.5 89q-103 0 -167 -93.5 t-64 -244.5zM614 1196v223h215v-223h-215z" />
<glyph unicode="&#xf7;" d="M29 659v127h966v-127h-966zM408 358q0 44 30.5 74.5t73.5 30.5q41 0 71.5 -31t30.5 -72q0 -43 -30.5 -73.5t-73.5 -30.5q-41 0 -71.5 30.5t-30.5 71.5zM410 1083q0 43 30.5 73t73.5 30q41 0 71.5 -31t30.5 -72q0 -43 -30.5 -73.5t-71.5 -30.5q-43 0 -73.5 30.5 t-30.5 73.5z" />
<glyph unicode="&#xf8;" horiz-adv-x="1107" d="M63 -25l134 158q-63 82 -90 162t-27 188q0 246 132 396.5t347 150.5q84 0 149.5 -22t135.5 -74l119 147l79 -63l-129 -154q64 -76 91.5 -159t27.5 -199q0 -246 -132 -392.5t-353 -146.5q-90 0 -156 21.5t-129 70.5l-119 -149zM324 504q0 -71 26 -193l359 459 q-42 37 -74 50.5t-74 13.5q-106 0 -171.5 -91t-65.5 -239zM403 219q53 -36 84.5 -48.5t69.5 -12.5q104 0 167.5 95t63.5 253q0 84 -26 170z" />
<glyph unicode="&#xf9;" horiz-adv-x="1091" d="M131 336l4 661h242l-2 -612q0 -80 8 -113q9 -43 39.5 -68.5t71.5 -25.5q51 0 100.5 28.5t124.5 100.5l2 690h240l-5 -997h-227v127q-77 -80 -149 -115t-162 -35q-178 0 -250 140q-22 41 -29.5 87t-7.5 132zM338 1458h244l182 -311h-143z" />
<glyph unicode="&#xfa;" horiz-adv-x="1091" d="M131 336l4 661h242l-2 -612q0 -80 8 -113q9 -43 39.5 -68.5t71.5 -25.5q51 0 100.5 28.5t124.5 100.5l2 690h240l-5 -997h-227v127q-77 -80 -149 -115t-162 -35q-178 0 -250 140q-22 41 -29.5 87t-7.5 132zM338 1147l182 311h244l-283 -311h-143z" />
<glyph unicode="&#xfb;" horiz-adv-x="1091" d="M131 336l4 661h242l-2 -612q0 -80 8 -113q9 -43 39.5 -68.5t71.5 -25.5q51 0 100.5 28.5t124.5 100.5l2 690h240l-5 -997h-227v127q-77 -80 -149 -115t-162 -35q-178 0 -250 140q-22 41 -29.5 87t-7.5 132zM274 1157l177 311h213l163 -311h-159l-119 207l-121 -207h-154z " />
<glyph unicode="&#xfc;" horiz-adv-x="1091" d="M131 336l4 661h242l-2 -612q0 -80 8 -113q9 -43 39.5 -68.5t71.5 -25.5q51 0 100.5 28.5t124.5 100.5l2 690h240l-5 -997h-227v127q-77 -80 -149 -115t-162 -35q-178 0 -250 140q-22 41 -29.5 87t-7.5 132zM272 1196v223h213v-223h-213zM608 1196v223h215v-223h-215z" />
<glyph unicode="&#xfd;" horiz-adv-x="954" d="M18 965l234 57l143 -440q42 -128 59 -203t25 -156q12 96 30 167.5t62 201.5l150 430l225 -74l-385 -1018q-88 -232 -188 -322.5t-267 -90.5q-42 0 -67 2v186h39q77 0 123.5 38.5t89.5 129.5l65 141zM270 1147l183 311h243l-282 -311h-144z" />
<glyph unicode="&#xfe;" horiz-adv-x="1175" d="M121 -330v1696h229v-569q121 211 332 211q196 0 313 -142.5t117 -380.5q0 -235 -116.5 -376.5t-311.5 -141.5q-118 0 -227 78q-36 26 -56.5 51t-42.5 70v-496h-237zM354 469q0 -148 70.5 -235t189.5 -87q118 0 188 89.5t70 240.5q0 155 -71.5 245.5t-194.5 90.5 q-116 0 -184 -93t-68 -251z" />
<glyph unicode="&#xff;" horiz-adv-x="954" d="M18 965l234 57l143 -440q42 -128 59 -203t25 -156q12 96 30 167.5t62 201.5l150 430l225 -74l-385 -1018q-88 -232 -188 -322.5t-267 -90.5q-42 0 -67 2v186h39q77 0 123.5 38.5t89.5 129.5l65 141zM207 1196v223h213v-223h-213zM543 1196v223h215v-223h-215z" />
<glyph unicode="&#x152;" horiz-adv-x="1968" d="M94 676q0 176 56.5 317.5t164.5 237.5q187 160 437 160q109 0 202 -34t154 -97q38 -38 78 -109l-8 215h680v-209h-443v-358h440v-209h-442v-381h453v-209h-695l9 201q-82 -123 -186 -178.5t-253 -55.5q-289 0 -468 196.5t-179 512.5zM354 680q0 -223 112 -362.5 t290 -139.5q186 0 299.5 140t113.5 366q0 229 -111 364.5t-300 135.5q-180 0 -292 -140t-112 -364z" />
<glyph unicode="&#x153;" horiz-adv-x="1753" d="M80 492q0 232 140.5 385t352.5 153q250 0 367 -205q118 205 340 205q139 0 239.5 -74t141.5 -208q18 -62 24.5 -118.5t8.5 -158.5h-643q5 -71 13.5 -110t29.5 -78q31 -56 81.5 -87.5t110.5 -31.5q58 0 108.5 28.5t112.5 96.5l144 -129q-94 -102 -185.5 -146.5 t-208.5 -44.5q-112 0 -190.5 43.5t-146.5 141.5q-78 -100 -161.5 -143.5t-197.5 -43.5q-209 0 -345 148.5t-136 376.5zM324 500q0 -147 67 -242.5t170 -95.5q112 0 182 95t70 247t-67 243t-179 91q-106 0 -174.5 -95t-68.5 -243zM1065 641h397q-7 104 -52.5 157.5 t-125.5 53.5q-83 0 -142.5 -57.5t-76.5 -153.5z" />
<glyph unicode="&#x178;" horiz-adv-x="1204" d="M18 1270l226 131l264 -428q61 -102 98 -178q39 73 105 178l264 428l221 -131l-463 -697l-4 -573h-260l4 565zM334 1538v223h213v-223h-213zM670 1538v223h215v-223h-215z" />
<glyph unicode="&#x2c6;" d="M242 1157l176 311h213l164 -311h-160l-119 207l-121 -207h-153z" />
<glyph unicode="&#x2dc;" d="M242 1212q6 102 46 157.5t107 55.5q56 0 176 -36q46 -11 64 -11q26 0 44 20t21 52h95q2 -12 2 -27q0 -74 -46.5 -128t-109.5 -54q-59 0 -170 33q-44 12 -72 12q-52 0 -61 -74h-96z" />
<glyph unicode="&#x2000;" horiz-adv-x="941" />
<glyph unicode="&#x2001;" horiz-adv-x="1882" />
<glyph unicode="&#x2002;" horiz-adv-x="941" />
<glyph unicode="&#x2003;" horiz-adv-x="1882" />
<glyph unicode="&#x2004;" horiz-adv-x="627" />
<glyph unicode="&#x2005;" horiz-adv-x="470" />
<glyph unicode="&#x2006;" horiz-adv-x="313" />
<glyph unicode="&#x2007;" horiz-adv-x="313" />
<glyph unicode="&#x2008;" horiz-adv-x="235" />
<glyph unicode="&#x2009;" horiz-adv-x="376" />
<glyph unicode="&#x200a;" horiz-adv-x="104" />
<glyph unicode="&#x2010;" horiz-adv-x="464" d="M2 399v219h465v-219h-465z" />
<glyph unicode="&#x2011;" horiz-adv-x="464" d="M2 399v219h465v-219h-465z" />
<glyph unicode="&#x2012;" horiz-adv-x="464" d="M2 399v219h465v-219h-465z" />
<glyph unicode="&#x2013;" horiz-adv-x="1099" d="M139 399v219h828v-219h-828z" />
<glyph unicode="&#x2014;" horiz-adv-x="1390" d="M2 399v219h1393v-219h-1393z" />
<glyph unicode="&#x2018;" horiz-adv-x="608" d="M129 934l170 487h119l-19 -487h-270z" />
<glyph unicode="&#x2019;" horiz-adv-x="661" d="M217 942l19 485h270l-170 -485h-119z" />
<glyph unicode="&#x201a;" horiz-adv-x="661" d="M217 -260l19 487h270l-170 -487h-119z" />
<glyph unicode="&#x201c;" horiz-adv-x="1009" d="M129 934l170 487h119l-19 -487h-270zM532 934l170 487h119l-18 -487h-271z" />
<glyph unicode="&#x201d;" horiz-adv-x="1009" d="M190 934l19 487h270l-170 -487h-119zM594 934l18 487h271l-170 -487h-119z" />
<glyph unicode="&#x201e;" horiz-adv-x="1009" d="M190 -244l19 488h270l-170 -488h-119zM594 -244l18 488h271l-170 -488h-119z" />
<glyph unicode="&#x2022;" horiz-adv-x="1366" d="M401 692q0 120 83.5 202.5t205.5 82.5q114 0 196.5 -83.5t82.5 -199.5q0 -118 -83 -201t-200 -83t-201 82.5t-84 199.5z" />
<glyph unicode="&#x2026;" horiz-adv-x="1992" d="M199 0v260h264v-260h-264zM864 0v260h264v-260h-264zM1526 0v260h264v-260h-264z" />
<glyph unicode="&#x202f;" horiz-adv-x="376" />
<glyph unicode="&#x2039;" horiz-adv-x="587" d="M57 506l338 393l103 -76l-213 -317l198 -318l-104 -73z" />
<glyph unicode="&#x203a;" horiz-adv-x="587" d="M96 193l211 315l-196 317l102 74l324 -391l-338 -393z" />
<glyph unicode="&#x205f;" horiz-adv-x="470" />
<glyph unicode="&#x2122;" horiz-adv-x="1849" d="M25 1225v141h647v-141h-234l-2 -678h-178l2 678h-235zM741 555l146 811h174l141 -422q46 -134 64 -233q12 68 71 233l154 422h174l133 -811l-174 -25l-55 418q-10 71 -13 203q-36 -132 -59 -195l-143 -409h-178l-140 418q-20 59 -47 180q-8 -138 -18 -205l-64 -410z" />
<glyph unicode="&#xe000;" horiz-adv-x="1044" d="M0 0v1044h1044v-1044h-1044z" />
<glyph unicode="&#xfb01;" horiz-adv-x="1148" d="M25 809v180h155v105q0 283 189 366q43 20 100 27.5t162 9.5v-190q-77 -2 -106 -7.5t-52 -23.5q-51 -42 -51 -182v-105h207v-180h-209l-2 -809h-242l2 809h-153zM770 0l4 997h242l-4 -997h-242zM776 1184v233h242v-233h-242z" />
<glyph unicode="&#xfb02;" horiz-adv-x="1150" d="M25 809v180h155v105q0 283 189 366q43 20 100 27.5t162 9.5v-190q-77 -2 -106 -7.5t-52 -23.5q-51 -42 -51 -182v-105h207v-180h-209l-2 -809h-242l2 809h-153zM770 0l8 1477h242l-6 -1477h-244z" />
</font>
</defs>
</svg>
